<?xml version="1.0" encoding="UTF-8"?>
<svg xmlns="http://www.w3.org/2000/svg" xmlns:xlink="http://www.w3.org/1999/xlink" width="23px" height="16px" viewBox="0 0 22 16" version="1.1">
<g id="surface1">
<path style=" stroke:none;fill-rule:nonzero;fill:rgb(0%,0%,0%);fill-opacity:1;" d="M 12.289062 5.558594 L 12.265625 5.589844 L 12.214844 5.613281 L 12.234375 5.699219 L 12.289062 5.785156 C 12.300781 5.796875 12.304688 5.808594 12.3125 5.820312 C 12.320312 5.824219 12.332031 5.832031 12.34375 5.84375 L 12.402344 5.785156 L 12.457031 5.699219 L 12.480469 5.644531 L 12.539062 5.613281 L 12.539062 5.558594 L 12.5625 5.558594 L 12.5625 5.417969 L 12.539062 5.394531 L 12.425781 5.394531 L 12.371094 5.417969 L 12.371094 5.433594 L 12.378906 5.433594 C 12.378906 5.4375 12.378906 5.441406 12.371094 5.449219 C 12.367188 5.453125 12.363281 5.460938 12.355469 5.472656 C 12.351562 5.480469 12.351562 5.492188 12.351562 5.503906 Z M 12.289062 5.558594 "/>
<path style=" stroke:none;fill-rule:evenodd;fill:rgb(0%,0%,0%);fill-opacity:1;" d="M 20.738281 1.21875 C 21.078125 1.574219 21.324219 2.011719 21.449219 2.496094 C 22.171875 5.519531 22.003906 10.296875 21.460938 13.4375 C 21.335938 13.917969 21.089844 14.359375 20.75 14.710938 C 20.410156 15.066406 19.988281 15.320312 19.523438 15.449219 C 17.820312 15.929688 10.96875 15.929688 10.96875 15.929688 C 10.96875 15.929688 4.117188 15.929688 2.417969 15.449219 C 1.953125 15.320312 1.527344 15.066406 1.1875 14.710938 C 0.847656 14.359375 0.601562 13.917969 0.476562 13.4375 C -0.253906 10.425781 -0.0546875 5.644531 0.460938 2.507812 C 0.585938 2.027344 0.832031 1.585938 1.171875 1.234375 C 1.515625 0.882812 1.9375 0.625 2.402344 0.496094 C 4.105469 0.015625 10.957031 0 10.957031 0 C 10.957031 0 17.804688 0 19.507812 0.480469 C 19.972656 0.613281 20.394531 0.867188 20.738281 1.21875 Z M 11.019531 3.949219 L 11.234375 3.894531 C 11.328125 3.910156 11.421875 3.9375 11.507812 3.972656 C 11.597656 4.011719 11.679688 4.0625 11.75 4.125 L 11.75 4.203125 L 11.800781 4.398438 C 11.8125 4.429688 11.816406 4.464844 11.816406 4.503906 C 11.824219 4.535156 11.824219 4.566406 11.824219 4.605469 C 11.824219 4.648438 11.800781 4.679688 11.757812 4.707031 L 11.695312 4.738281 L 11.613281 4.738281 L 11.613281 4.878906 L 11.636719 5 L 11.75 5 L 11.855469 4.9375 L 11.992188 4.9375 L 12.046875 4.738281 L 12.074219 4.738281 L 12.074219 4.878906 L 12.152344 4.878906 L 12.152344 4.9375 L 13.785156 4.9375 L 13.816406 5.023438 L 13.871094 5.023438 L 13.871094 4.714844 L 13.921875 4.714844 L 13.921875 4.96875 L 13.953125 5.023438 L 13.976562 5 L 14.027344 5 L 14.007812 5.078125 L 14.027344 5.140625 L 14.492188 5.140625 L 14.546875 5.078125 L 14.574219 5.109375 L 14.808594 5.109375 L 14.808594 5.21875 L 14.574219 5.21875 L 14.546875 5.242188 L 14.523438 5.21875 L 14.027344 5.21875 L 14.027344 5.242188 L 13.898438 5.242188 L 13.871094 5.21875 L 13.816406 5.195312 L 13.816406 5.273438 L 13.132812 5.273438 L 13.054688 5.335938 L 12.996094 5.449219 L 12.859375 5.535156 L 12.875 5.628906 C 12.882812 5.691406 12.890625 5.726562 12.890625 5.730469 L 12.910156 5.859375 L 12.941406 5.984375 L 12.859375 5.984375 L 12.804688 6.070312 L 12.78125 6.234375 L 12.699219 6.410156 L 12.480469 6.605469 L 12.371094 6.605469 L 12.183594 6.574219 L 11.824219 6.433594 L 11.664062 6.324219 L 11.613281 6.519531 L 11.636719 6.519531 L 11.71875 6.574219 L 11.75 6.683594 L 11.75 7.308594 L 11.664062 7.558594 L 11.582031 7.625 L 11.527344 7.589844 L 11.476562 7.589844 L 11.421875 7.625 L 11.390625 7.679688 L 11.421875 7.703125 L 11.445312 7.875 L 11.695312 8.214844 L 11.9375 8.695312 L 12.128906 9.144531 L 12.214844 9.339844 L 12.214844 9.710938 L 12.183594 9.964844 L 12.152344 10.105469 L 12.128906 10.269531 L 12.183594 10.5 L 12.152344 10.664062 L 12.097656 10.695312 L 12.097656 11.175781 L 12.371094 11.515625 L 12.480469 11.539062 L 12.699219 11.65625 L 12.699219 11.738281 L 12.667969 11.824219 L 12.183594 11.824219 L 12.015625 11.800781 L 11.855469 11.738281 L 11.75 11.769531 L 11.613281 11.769531 L 11.527344 11.738281 L 11.527344 11.59375 L 11.558594 11.398438 L 11.613281 11.289062 L 11.636719 11.121094 L 11.613281 10.949219 L 11.613281 10.75 L 11.558594 10.695312 L 11.527344 10.523438 L 11.5 10.324219 L 11.476562 10.183594 L 11.476562 9.910156 L 11.527344 9.789062 L 11.527344 9.679688 L 11.558594 9.570312 L 11.527344 9.484375 L 11.476562 9.425781 L 11.371094 9.425781 L 11.253906 9.394531 L 10.851562 8.773438 L 10.6875 8.773438 L 10.601562 8.578125 L 10.550781 8.578125 L 10.550781 8.664062 L 10.441406 8.804688 L 10.359375 8.945312 L 10.273438 9.175781 L 10.199219 9.515625 L 10.085938 9.625 L 10.0625 9.710938 L 9.980469 9.820312 L 9.894531 9.910156 L 9.84375 10.050781 L 9.84375 10.183594 L 9.8125 10.324219 L 9.683594 10.585938 L 9.621094 10.839844 L 9.515625 10.980469 L 9.460938 10.980469 L 9.378906 11.199219 L 9.324219 11.515625 L 9.355469 11.714844 L 9.410156 11.824219 L 9.378906 11.910156 L 9.1875 11.964844 L 8.945312 11.933594 L 8.839844 11.910156 L 8.808594 11.769531 L 8.839844 11.625 L 9 10.894531 L 8.945312 10.863281 L 8.945312 10.664062 L 9.027344 10.5 L 9.105469 10.359375 L 9.136719 10.128906 L 9.355469 9.710938 L 9.492188 9.394531 L 9.492188 9.035156 L 9.570312 8.519531 L 9.515625 8.464844 L 9.515625 8.410156 L 9.546875 8.378906 L 9.515625 8.355469 L 9.492188 8.300781 L 9.546875 8.238281 L 9.546875 8.183594 L 9.492188 8.128906 L 9.515625 8.015625 L 9.570312 7.960938 L 9.621094 7.960938 L 9.570312 7.480469 L 9.570312 7.167969 L 9.621094 7.109375 L 9.757812 7.054688 L 9.621094 7.023438 L 9.492188 6.96875 L 9.546875 6.488281 L 9.546875 6.234375 L 9.597656 6.148438 L 9.789062 6.148438 L 9.871094 6.125 L 9.851562 5.953125 C 9.835938 5.835938 9.851562 5.667969 9.894531 5.441406 C 9.921875 5.308594 9.972656 5.191406 10.046875 5.085938 C 10.128906 4.980469 10.226562 4.894531 10.335938 4.824219 L 10.550781 4.824219 C 10.558594 4.824219 10.570312 4.828125 10.578125 4.832031 C 10.589844 4.839844 10.597656 4.847656 10.601562 4.855469 C 10.613281 4.863281 10.621094 4.867188 10.625 4.871094 C 10.636719 4.878906 10.644531 4.878906 10.65625 4.878906 L 10.714844 4.824219 L 10.714844 4.769531 L 10.664062 4.644531 C 10.628906 4.558594 10.644531 4.433594 10.714844 4.265625 C 10.78125 4.09375 10.882812 3.988281 11.019531 3.949219 Z M 11.019531 3.949219 "/>
</g>
</svg>
