<svg width="22" height="16" viewBox="0 0 22 16" fill="none" xmlns="http://www.w3.org/2000/svg">
<path fill-rule="evenodd" clip-rule="evenodd" d="M11.0731 2.79751e-06L10.9267 0C10.9027 5.04546e-05 10.8732 0.000127063 10.8382 0.000240586L10.3894 0.00262127C8.66648 0.0148791 3.80044 0.0822988 2.39181 0.453099C1.46762 0.706724 0.706416 1.46793 0.452794 2.41025C0.0868813 3.80069 0.0165814 6.39717 0.00304369 7.34439L0.000537122 7.56768C0.00030245 7.5966 0.000102669 7.62115 0 7.64105V7.76316C0.000102669 7.78315 0.00030245 7.80782 0.000537122 7.83687L0.00304369 8.06113C0.0165814 9.01233 0.0868813 11.6177 0.452794 12.9937C0.706592 13.936 1.4495 14.6791 2.39199 14.9329C3.97346 15.3612 9.79362 15.4001 10.8388 15.4037L11.1618 15.4037C12.2095 15.4003 18.043 15.3628 19.6082 14.9508C20.5507 14.6972 21.2936 13.9541 21.5474 13.0118C21.9482 11.4888 21.9945 8.51933 21.9998 7.85435L22 7.48516C21.9945 6.66017 21.946 3.8669 21.5472 2.41025C21.2936 1.46776 20.5505 0.724851 19.6082 0.471059C18.1996 0.085564 13.3334 0.0154741 11.6104 0.00273037L11.1616 0.000251776C11.1266 0.000133707 11.0971 5.53055e-05 11.0731 2.79751e-06ZM8.8072 4.40366L14.5338 7.70196L8.8072 11.0002V4.40366Z" fill="black"/>
</svg>
